<svg width="60" height="58" viewBox="0 0 60 58" fill="none" xmlns="http://www.w3.org/2000/svg">
<path fill-rule="evenodd" clip-rule="evenodd" d="M27.7031 33.2533V23.9733L36.715 28.6133L27.7031 33.2533ZM47.49 22.4267C47.49 22.4267 47.0982 20.1067 46.1186 19.14C44.9431 17.7867 43.3759 17.7867 42.7881 17.7867C38.0863 17.4 31.2295 17.4 31.2295 17.4C31.2295 17.4 24.1767 17.4 19.6708 17.7867C19.0831 17.7867 17.5158 17.7867 16.3404 19.14C15.3608 20.1067 14.969 22.4267 14.969 22.4267C14.969 22.4267 14.5772 25.1333 14.5772 27.6467V30.16C14.5772 32.8667 14.969 35.5733 14.969 35.5733C14.969 35.5733 15.3608 37.8933 16.3404 38.86C17.5158 40.2133 19.279 40.2133 20.0627 40.2133C22.8054 40.4067 31.4254 40.6 31.4254 40.6C31.4254 40.6 38.4781 40.6 42.9841 40.2133C43.5718 40.2133 45.1391 40.2133 46.3145 38.86C47.2941 37.8933 47.6859 35.5733 47.6859 35.5733C47.6859 35.5733 48.0777 32.8667 48.0777 30.16V27.6467C47.6859 25.1333 47.49 22.4267 47.49 22.4267ZM0.863525 29C0.863525 12.9533 13.9895 0 30.2499 0C46.5104 0 59.6364 12.9533 59.6364 29C59.6364 45.0467 46.5104 58 30.2499 58C13.9895 58 0.863525 45.0467 0.863525 29Z" fill="white"/>
</svg>
