<svg width="60" height="58" viewBox="0 0 60 58" fill="none" xmlns="http://www.w3.org/2000/svg">
<path d="M12.0727 28.42C11.6809 33.2533 15.0113 38.0867 19.7131 39.8267C24.415 41.5667 30.2922 40.4067 33.4268 36.3467C35.3859 33.8333 35.7777 30.5467 35.5818 27.4533C35.5818 27.4533 27.9414 27.4533 24.0232 27.4533C24.0232 28.8067 24.0232 30.16 24.0232 31.32C26.3741 31.32 28.5291 31.32 30.88 31.32C29.9005 36.1533 23.0436 37.8933 19.3213 34.6067C15.599 31.7067 15.7949 25.7133 19.7131 23.0067C22.4559 20.88 26.3741 21.46 29.1168 23.2C30.0963 22.2333 31.2718 21.2667 32.2514 20.1067C29.9004 18.3667 27.1577 17.2067 24.2191 17.2067C17.95 17.2067 12.2686 22.4267 12.0727 28.42ZM45.3773 23.2H41.4591C41.4591 24.5533 41.4591 25.7133 41.4591 27.0667C40.0877 27.0667 38.9123 27.0667 37.5409 27.0667V30.9333C38.9123 30.9333 40.0877 30.9333 41.4591 30.9333C41.4591 32.2867 41.4591 33.4467 41.4591 34.8H45.3773C45.3773 33.4467 45.3773 32.2867 45.3773 30.9333C46.7486 30.9333 47.9241 30.9333 49.2955 30.9333V27.0667C47.9241 27.0667 46.7486 27.0667 45.3773 27.0667C45.3773 25.7133 45.3773 24.5533 45.3773 23.2ZM29.7045 0C45.965 0 59.0909 12.9533 59.0909 29C59.0909 45.0467 45.965 58 29.7045 58C13.444 58 0.318115 45.0467 0.318115 29C0.318115 12.9533 13.444 0 29.7045 0Z" fill="white"/>
</svg>
